<svg width="31" height="20" viewBox="0 0 31 20" fill="none" xmlns="http://www.w3.org/2000/svg">
<path d="M30.0481 20H0.574557C0.434968 20 0.301101 19.9445 0.202396 19.8458C0.103692 19.7471 0.0482336 19.6132 0.0482178 19.4737L0.0482178 0.526339C0.0482336 0.38675 0.103692 0.252883 0.202396 0.154179C0.301101 0.0554743 0.434968 1.58094e-05 0.574557 0H30.0482C30.1878 1.58094e-05 30.3216 0.0554743 30.4203 0.154179C30.5191 0.252883 30.5745 0.38675 30.5745 0.526339V19.4737C30.5745 19.6133 30.519 19.7471 30.4203 19.8458C30.3216 19.9445 30.1877 20 30.0481 20Z" fill="#FF4B55"/>
<path d="M17.8056 11.3127L21.8261 8.36271H16.8471L15.3044 3.61456L13.7617 8.36271H8.78278L12.8032 11.3127L11.2725 16.0241L15.3005 13.145L15.3044 13.1478L15.3084 13.145L19.3364 16.0241L17.8056 11.3127ZM18.6121 9.41533L17.463 10.2584L17.1891 9.41533H18.6121ZM14.0395 10.9142L14.5265 9.41527H16.0823L16.5694 10.9142L15.3044 11.8423L14.0395 10.9142ZM15.3044 7.02122L15.7403 8.36271H14.8685L15.3044 7.02122ZM11.9967 9.41533H13.4198L13.1458 10.2584L11.9967 9.41533ZM13.2616 13.3082L13.697 11.9684L14.4071 12.4894L13.2616 13.3082ZM16.9119 11.9684L17.3473 13.3082L16.2018 12.4895L16.9119 11.9684Z" fill="#5A8250"/>
</svg>
