<svg width="31" height="20" viewBox="0 0 31 20" fill="none" xmlns="http://www.w3.org/2000/svg">
<path d="M10.1754 20H0.526339C0.38675 20 0.252883 19.9445 0.154179 19.8458C0.0554743 19.7471 1.58094e-05 19.6132 0 19.4737L0 0.526339C1.58094e-05 0.38675 0.0554743 0.252883 0.154179 0.154179C0.252883 0.0554743 0.38675 1.58094e-05 0.526339 0H10.1754V20Z" fill="#41479B"/>
<path d="M10.1805 0H20.3561V19.9999H10.1805V0Z" fill="#F5F5F5"/>
<path d="M29.995 19.9999H20.3459V0H29.995C30.1346 1.58094e-05 30.2684 0.0554743 30.3671 0.154179C30.4658 0.252883 30.5213 0.38675 30.5213 0.526339V19.4737C30.5213 19.6132 30.4658 19.7471 30.3671 19.8458C30.2684 19.9445 30.1346 19.9999 29.995 19.9999Z" fill="#FF4B55"/>
</svg>
