<svg width="32" height="20" viewBox="0 0 32 20" fill="none" xmlns="http://www.w3.org/2000/svg">
<path d="M31.0483 6.66686H0.52124V0.526352C0.521256 0.386759 0.576716 0.252889 0.675423 0.154182C0.774129 0.0554757 0.908 1.58098e-05 1.04759 0H30.5219C30.6615 1.58098e-05 30.7954 0.0554757 30.8941 0.154182C30.9928 0.252889 31.0483 0.386759 31.0483 0.526352V6.66686Z" fill="#464655"/>
<path d="M30.5219 20.0001H1.04759C0.908 20 0.774129 19.9446 0.675423 19.8459C0.576716 19.7472 0.521256 19.6133 0.52124 19.4737V13.3333H31.0482V19.4737C31.0482 19.6133 30.9928 19.7472 30.8941 19.8459C30.7953 19.9446 30.6615 20.0001 30.5219 20.0001Z" fill="#FFE15A"/>
<path d="M0.52124 6.66653H31.0482V13.3331H0.52124V6.66653Z" fill="#FF4B55"/>
</svg>
