<svg width="47" height="39" viewBox="0 0 47 39" fill="none" xmlns="http://www.w3.org/2000/svg">
<path d="M46.2095 33.9636C45.3064 33.0763 34.3629 28.8524 32.3771 28.0556C30.4018 27.2727 29.6138 25.1033 29.6138 25.1033C29.6138 25.1033 28.7246 25.5939 28.7246 24.2161C28.7246 22.8365 29.6138 25.1033 30.5029 19.7834C30.5029 19.7834 32.9699 19.0927 32.48 13.3813H31.8872C31.8872 13.3813 33.3691 7.27496 31.8872 5.20821C30.4 3.14145 29.8177 1.76362 26.5523 0.77547C23.2921 -0.210935 24.4776 -0.01435 22.11 0.0865521C19.739 0.185715 17.7654 1.46613 17.7654 2.15331C17.7654 2.15331 16.2835 2.25247 15.6942 2.84397C15.1014 3.43546 14.1147 6.19113 14.1147 6.88005C14.1147 7.56897 14.608 12.2035 15.1014 13.1847L14.5139 13.3761C14.0205 19.0892 16.4875 19.7816 16.4875 19.7816C17.3766 25.1016 18.2658 22.8348 18.2658 24.2143C18.2658 25.5922 17.3766 25.1016 17.3766 25.1016C17.3766 25.1016 16.5868 27.2693 14.6133 28.0539C12.6397 28.8419 1.68398 33.0763 0.793091 33.9618C-0.0960586 34.8665 0.0033168 39 0.0033168 39H46.9958C46.9958 39 47.1056 34.863 46.206 33.9601L46.2095 33.9636ZM35.1648 37.8779H27.2113V35.7033H35.1648V37.8779Z" fill="black"/>
</svg>
