<svg width="58" height="44" viewBox="0 0 58 44" fill="none" xmlns="http://www.w3.org/2000/svg">
<path d="M17.6063 40.419C12.5737 45.4549 4.0503 45.4348 1.66995 38.7232C1.20391 37.4092 0.831297 36.0581 0.557239 34.6795C-0.561731 29.0503 0.0125652 23.2158 2.20751 17.9134C4.40245 12.611 8.11944 8.07902 12.8885 4.89045C17.6576 1.70189 23.2644 -2.45848e-07 29.0001 0C34.7357 2.45848e-07 40.3426 1.70189 45.1115 4.89045C49.8806 8.07902 53.5976 12.6111 55.7925 17.9135C57.9875 23.2158 58.5617 29.0503 57.4428 34.6795C57.1688 36.0581 56.7961 37.4092 56.33 38.7232C53.9496 45.4348 45.4263 45.4549 40.3936 40.419L32.625 32.6455C31.8828 31.9028 31.9595 30.678 32.1642 29.648C32.2886 29.0218 32.2247 28.3728 31.9805 27.7829C31.7363 27.193 31.3229 26.6887 30.7924 26.3341C30.2619 25.9795 29.6381 25.7901 29.0001 25.7901C28.362 25.7901 27.7383 25.9795 27.2077 26.3341C26.677 26.6887 26.2636 27.193 26.0194 27.7829C25.7752 28.3728 25.7113 29.0218 25.8359 29.648C26.0406 30.678 26.1172 31.9028 25.375 32.6455L17.6063 40.419Z" fill="url(#paint0_linear_1_100)"/>
<path d="M51.2095 38.9636C50.3064 38.0763 39.3629 33.8524 37.3771 33.0556C35.4018 32.2727 34.6138 30.1033 34.6138 30.1033C34.6138 30.1033 33.7246 30.5939 33.7246 29.2161C33.7246 27.8365 34.6138 30.1033 35.5029 24.7834C35.5029 24.7834 37.9699 24.0927 37.48 18.3813H36.8872C36.8872 18.3813 38.3691 12.275 36.8872 10.2082C35.4 8.14145 34.8177 6.76362 31.5523 5.77547C28.2921 4.78906 29.4776 4.98565 27.11 5.08655C24.739 5.18571 22.7654 6.46613 22.7654 7.15331C22.7654 7.15331 21.2835 7.25247 20.6942 7.84397C20.1014 8.43546 19.1147 11.1911 19.1147 11.8801C19.1147 12.569 19.608 17.2035 20.1014 18.1847L19.5139 18.3761C19.0205 24.0892 21.4875 24.7816 21.4875 24.7816C22.3766 30.1016 23.2658 27.8348 23.2658 29.2143C23.2658 30.5922 22.3766 30.1016 22.3766 30.1016C22.3766 30.1016 21.5868 32.2693 19.6133 33.0539C17.6397 33.8419 6.68398 38.0763 5.79309 38.9618C4.90394 39.8665 5.00332 44 5.00332 44H51.9958C51.9958 44 52.1056 39.863 51.206 38.9601L51.2095 38.9636ZM40.1648 42.8779H32.2113V40.7033H40.1648V42.8779Z" fill="black"/>
<defs>
<linearGradient id="paint0_linear_1_100" x1="55.3603" y1="14.5091" x2="3.88528" y2="14.5091" gradientUnits="userSpaceOnUse">
<stop stop-color="#64C2DB"/>
<stop offset="0.510417" stop-color="#7476ED"/>
<stop offset="1" stop-color="#E56F8C"/>
</linearGradient>
</defs>
</svg>
