<svg width="173" height="173" viewBox="0 0 173 173" fill="none" xmlns="http://www.w3.org/2000/svg">
<path fill-rule="evenodd" clip-rule="evenodd" d="M113.709 56.8752C117.074 53.511 122.529 53.511 125.893 56.8752C129.257 60.2391 129.257 65.694 125.893 69.0582L78.8266 116.125C75.0174 119.935 68.7214 119.336 65.6646 114.956L46.4535 90.7808C43.4981 87.0636 44.115 81.6539 47.8326 78.6985C51.5501 75.7435 56.9598 76.3611 59.9152 80.0783L73.4611 97.1246L113.709 56.8752ZM86.5 19.3002C49.3868 19.3002 19.3009 49.3861 19.3009 86.5C19.3009 123.614 49.3868 153.7 86.5 153.7C123.615 153.7 153.7 123.614 153.7 86.5C153.7 49.3861 123.615 19.3002 86.5 19.3002ZM86.5 13.3347C46.0931 13.3347 13.3354 46.0927 13.3354 86.5C13.3354 126.907 46.0931 159.665 86.5 159.665C126.908 159.665 159.665 126.907 159.665 86.5C159.665 46.0927 126.908 13.3347 86.5 13.3347ZM86.5 0C38.7278 0 0 38.7271 0 86.5C0 134.273 38.7278 173 86.5 173C134.273 173 173 134.273 173 86.5C173 38.7271 134.273 0 86.5 0Z" fill="white"/>
</svg>
